# xmcd
#
# Track frame offsets:
#	150
#	29966
#	56507
#	71242
#	85937
#	117617
#	147033
#	164736
#	187713
#
# Disc length: 3008 seconds
#
# Revision: 0
# Processed by: cddbd v1.5.1PL2 Copyright (c) Steve Scherf et al.
# Submitted via: dBpowerAMP V4.0
#
DISCID=860bbe09
DTITLE=Bobos and The Frozen  Dozen - EOSPHOROS
DYEAR=1900
DGENRE=
TTITLE0=EOSPHOROS
TTITLE1=Closer
TTITLE2=You
TTITLE3=Me And The Devil Blues, take II (Robert Johnson)
TTITLE4=Me And The Devil Blues, part II
TTITLE5=The Way In
TTITLE6=Who
TTITLE7=Again and Again
TTITLE8=Freedom
EXTD=
EXTT0=
EXTT1=
EXTT2=
EXTT3=
EXTT4=
EXTT5=
EXTT6=
EXTT7=
EXTT8=
PLAYORDER=
